<svg width="84" height="84" viewBox="0 0 84 84" fill="none" xmlns="http://www.w3.org/2000/svg">
<g filter="url(#filter0_d_1_9)">
<circle cx="42" cy="38" r="30" fill="#3A8D8C"/>
</g>
<g filter="url(#filter1_d_1_9)">
<path d="M27.1983 41.0132C26.4022 40.1818 25.5 39.2441 25.5 37.9999C25.5 36.7557 26.4022 35.818 27.1983 34.9866C27.6553 34.5835 28.0318 34.0973 28.3069 33.5534C28.4127 32.9236 28.3988 32.2795 28.2655 31.6547C28.1181 30.5343 27.947 29.2663 28.6489 28.2992C29.3565 27.3204 30.6243 27.0902 31.7391 26.8897C32.3672 26.827 32.9777 26.6448 33.5377 26.3531C33.9813 25.9187 34.3357 25.402 34.5815 24.8317C35.1241 23.8234 35.7372 22.6793 36.8991 22.3018C38.0195 21.9361 39.1637 22.4845 40.1719 22.9681C40.7348 23.2961 41.3553 23.5123 42 23.6052C42.6447 23.5123 43.2652 23.2961 43.8281 22.9681C44.8364 22.4845 45.9806 21.9362 47.1009 22.3018C48.2627 22.6793 48.8759 23.8232 49.4185 24.8317C49.6644 25.402 50.0187 25.9188 50.4623 26.3531C51.0204 26.644 51.6288 26.8262 52.2551 26.8897C53.3756 27.0903 54.6435 27.3201 55.3511 28.2992C56.053 29.2664 55.8819 30.5343 55.7345 31.6547C55.6012 32.2794 55.5873 32.9236 55.6931 33.5534C55.9682 34.0973 56.3447 34.5835 56.8017 34.9866C57.5978 35.818 58.5 36.7557 58.5 37.9999C58.5 39.2441 57.5978 40.1818 56.8017 41.0132C56.3447 41.4163 55.9682 41.9025 55.6931 42.4464C55.5873 43.0762 55.6012 43.7203 55.7345 44.3451C55.8819 45.4655 56.053 46.7335 55.3511 47.7006C54.6435 48.6794 53.3757 48.9096 52.2609 49.1101C51.6328 49.1728 51.0223 49.355 50.4623 49.6467C50.0208 50.0826 49.6664 50.5992 49.4185 51.1681C48.8759 52.1764 48.2628 53.3205 47.1009 53.698C45.9805 54.0637 44.8363 53.5153 43.8281 53.0317C43.2652 52.7037 42.6447 52.4875 42 52.3946C41.3553 52.4875 40.7348 52.7037 40.1719 53.0317C39.401 53.4716 38.5442 53.7393 37.6599 53.816C37.4016 53.8173 37.1447 53.7773 36.8991 53.698C35.7373 53.3205 35.1241 52.1766 34.5815 51.1681C34.3356 50.5979 33.9813 50.0811 33.5377 49.6467C32.9796 49.3558 32.3712 49.1736 31.7449 49.1102C30.6244 48.9096 29.3565 48.6797 28.6489 47.7007C27.947 46.7334 28.1181 45.4656 28.2655 44.3451C28.3988 43.7204 28.4127 43.0762 28.3069 42.4465C28.0318 41.9026 27.6553 41.4163 27.1983 41.0132ZM28.478 39.7927C29.1338 40.3738 29.6498 41.0954 29.9875 41.9038C30.1981 42.7826 30.2081 43.6977 30.017 44.581C29.9048 45.4124 29.793 46.2674 30.0818 46.6626C30.3708 47.0578 31.2317 47.217 32.0573 47.3703L32.0575 47.3705C32.9505 47.4624 33.8124 47.7502 34.5814 48.2138C35.2519 48.798 35.7856 49.5227 36.1442 50.3367C36.5451 51.0857 36.9579 51.8581 37.4473 52.0174C37.8896 52.1649 38.662 51.7934 39.4052 51.4335C40.2 50.9765 41.0861 50.7006 41.9999 50.6256C42.9138 50.7006 43.7999 50.9765 44.5947 51.4335C45.3376 51.7931 46.1102 52.1588 46.5526 52.0174C47.042 51.8582 47.4548 51.0858 47.8557 50.3367C48.2143 49.5227 48.7479 48.798 49.4185 48.2138C50.1875 47.7502 51.0494 47.4625 51.9424 47.3705C52.768 47.2173 53.6288 47.0638 53.9179 46.6629C54.2069 46.2619 54.0948 45.4126 53.9826 44.5812L53.9829 44.581C53.7918 43.6978 53.8018 42.7826 54.0124 41.9038C54.3501 41.0954 54.8661 40.3738 55.5219 39.7927C56.1176 39.1735 56.7308 38.5306 56.7308 37.9999C56.7308 37.4692 56.1174 36.8263 55.5219 36.207C54.8661 35.626 54.3501 34.9044 54.0124 34.096C53.8018 33.2172 53.7918 32.3021 53.9829 31.4188C54.095 30.5874 54.2069 29.7324 53.9181 29.3372C53.6291 28.942 52.7682 28.7827 51.9426 28.6295L51.9424 28.6293C51.0494 28.5374 50.1875 28.2496 49.4185 27.786C48.7479 27.2018 48.2143 26.4771 47.8557 25.6631C47.4548 24.9141 47.042 24.1417 46.5526 23.9824C46.1103 23.8349 45.3379 24.2064 44.5947 24.5663C43.7999 25.0233 42.9138 25.2992 41.9999 25.3742C41.0861 25.2992 40.2 25.0233 39.4052 24.5663C38.6623 24.2067 37.8896 23.841 37.4473 23.9824C36.9579 24.1416 36.5451 24.914 36.1442 25.6631C35.7856 26.4771 35.252 27.2018 34.5814 27.786C33.8124 28.2496 32.9505 28.5373 32.0575 28.6293C31.2319 28.7825 30.3711 28.936 30.082 29.3369C29.793 29.7379 29.9051 30.5872 30.0173 31.4185L30.017 31.4188C30.2081 32.302 30.1981 33.2172 29.9875 34.096C29.6497 34.9044 29.1337 35.626 28.478 36.207C27.8825 36.8262 27.2691 37.4692 27.2691 37.9999C27.2691 38.5306 27.8822 39.1735 28.478 39.7927ZM42.0002 26.3828C45.0812 26.3828 48.0362 27.6067 50.215 29.7855C52.3938 31.964 53.6177 34.9191 53.6177 38.0003C53.6177 41.0815 52.3938 44.0364 50.215 46.2151C48.0365 48.3939 45.0814 49.6178 42.0002 49.6178C38.919 49.6178 35.9641 48.3939 33.7854 46.2151C31.6066 44.0366 30.3827 41.0815 30.3827 38.0003C30.3867 34.9204 31.6121 31.9679 33.7899 29.7902C35.9676 27.6125 38.9201 26.387 42 26.383L42.0002 26.3828ZM36.7989 37.0508L38.9866 39.1385L38.5148 42.1284L38.5151 42.1281C38.4793 42.3493 38.5725 42.5717 38.7557 42.7007C38.939 42.83 39.1796 42.8434 39.376 42.7355L42.0415 41.2965L44.7365 42.6704V42.6707C44.9363 42.7731 45.177 42.7531 45.3573 42.6194C45.5376 42.4854 45.6261 42.2605 45.5855 42.0397L45.0372 39.0616L47.1778 36.921C47.3336 36.7617 47.3863 36.5279 47.3139 36.3173C47.2417 36.1065 47.0567 35.9543 46.8358 35.9243L43.8341 35.5233L42.4659 32.8283H42.4661C42.3653 32.6259 42.1576 32.499 41.9317 32.5016C41.7056 32.504 41.5008 32.6356 41.4047 32.8402L40.1015 35.5705L37.1117 36.0423H37.1114C36.8908 36.0783 36.7094 36.236 36.6431 36.4498C36.577 36.6636 36.6372 36.8963 36.7989 37.0508Z" fill="white"/>
</g>
<defs>
<filter id="filter0_d_1_9" x="0" y="0" width="84" height="84" filterUnits="userSpaceOnUse" color-interpolation-filters="sRGB">
<feFlood flood-opacity="0" result="BackgroundImageFix"/>
<feColorMatrix in="SourceAlpha" type="matrix" values="0 0 0 0 0 0 0 0 0 0 0 0 0 0 0 0 0 0 127 0" result="hardAlpha"/>
<feMorphology radius="4" operator="dilate" in="SourceAlpha" result="effect1_dropShadow_1_9"/>
<feOffset dy="4"/>
<feGaussianBlur stdDeviation="4"/>
<feComposite in2="hardAlpha" operator="out"/>
<feColorMatrix type="matrix" values="0 0 0 0 0 0 0 0 0 0 0 0 0 0 0 0 0 0 0.12 0"/>
<feBlend mode="normal" in2="BackgroundImageFix" result="effect1_dropShadow_1_9"/>
<feBlend mode="normal" in="SourceGraphic" in2="effect1_dropShadow_1_9" result="shape"/>
</filter>
<filter id="filter1_d_1_9" x="21.5" y="22.1826" width="41" height="39.6346" filterUnits="userSpaceOnUse" color-interpolation-filters="sRGB">
<feFlood flood-opacity="0" result="BackgroundImageFix"/>
<feColorMatrix in="SourceAlpha" type="matrix" values="0 0 0 0 0 0 0 0 0 0 0 0 0 0 0 0 0 0 127 0" result="hardAlpha"/>
<feOffset dy="4"/>
<feGaussianBlur stdDeviation="2"/>
<feComposite in2="hardAlpha" operator="out"/>
<feColorMatrix type="matrix" values="0 0 0 0 0 0 0 0 0 0 0 0 0 0 0 0 0 0 0.12 0"/>
<feBlend mode="normal" in2="BackgroundImageFix" result="effect1_dropShadow_1_9"/>
<feBlend mode="normal" in="SourceGraphic" in2="effect1_dropShadow_1_9" result="shape"/>
</filter>
</defs>
</svg>
