<svg width="20" height="20" viewBox="0 0 20 20" fill="none" xmlns="http://www.w3.org/2000/svg">
<g clip-path="url(#clip0_1_2)">
<path d="M10 20C15.5417 20 20 15.5417 20 10C20 4.4583 15.5417 0 10 0C4.4583 0 0 4.4583 0 10C0 15.5417 4.4583 20 10 20Z" fill="#2775CA"/>
<path d="M12.75 11.5833C12.75 10.125 11.875 9.625 10.125 9.4167C8.875 9.25 8.625 8.9167 8.625 8.3333C8.625 7.7499 9.0417 7.375 9.875 7.375C10.625 7.375 11.0417 7.625 11.25 8.25C11.2917 8.375 11.4167 8.4583 11.5417 8.4583H12.2083C12.375 8.4583 12.5 8.3333 12.5 8.1667V8.125C12.3333 7.2083 11.5833 6.5 10.625 6.4167V5.4167C10.625 5.25 10.5 5.125 10.2917 5.0833H9.6667C9.5 5.0833 9.375 5.2083 9.3333 5.4167V6.375C8.0833 6.5417 7.2917 7.375 7.2917 8.4167C7.2917 9.7917 8.125 10.3333 9.875 10.5417C11.0417 10.75 11.4167 11 11.4167 11.6667C11.4167 12.3334 10.8333 12.7917 10.0417 12.7917C8.9583 12.7917 8.5833 12.3333 8.4583 11.7083C8.4167 11.5417 8.2917 11.4583 8.1667 11.4583H7.4583C7.2917 11.4583 7.1667 11.5833 7.1667 11.75V11.7917C7.3333 12.8333 8 13.5833 9.375 13.7917V14.7917C9.375 14.9583 9.5 15.0833 9.7083 15.125H10.3333C10.5 15.125 10.625 15 10.6667 14.7917V13.7917C11.9167 13.5833 12.75 12.7083 12.75 11.5833Z" fill="white"/>
<path d="M7.875 15.9583C4.625 14.7917 2.9583 11.1667 4.1667 7.9583C4.7917 6.2083 6.1667 4.875 7.875 4.25C8.0417 4.1667 8.125 4.0417 8.125 3.8333V3.25C8.125 3.0833 8.0417 2.9583 7.875 2.9167C7.8333 2.9167 7.75 2.9167 7.7083 2.9583C3.75 4.2083 1.5833 8.4167 2.8333 12.375C3.5833 14.7083 5.375 16.5 7.7083 17.25C7.875 17.3333 8.0417 17.25 8.0833 17.0833C8.125 17.0417 8.125 17 8.125 16.9167V16.3333C8.125 16.2083 8 16.0417 7.875 15.9583ZM12.2917 2.9583C12.125 2.875 11.9583 2.9583 11.9167 3.125C11.875 3.1667 11.875 3.2083 11.875 3.2917V3.875C11.875 4.0417 12 4.2083 12.125 4.2917C15.375 5.4583 17.0417 9.0833 15.8333 12.2917C15.2083 14.0417 13.8333 15.375 12.125 16C11.9583 16.0833 11.875 16.2083 11.875 16.4167V17C11.875 17.1667 11.9583 17.2917 12.125 17.3333C12.1667 17.3333 12.25 17.3333 12.2917 17.2917C16.25 16.0417 18.4167 11.8333 17.1667 7.875C16.4167 5.5 14.5833 3.7083 12.2917 2.9583Z" fill="white"/>
</g>
<defs>
<clipPath id="clip0_1_2">
<rect width="20" height="20" fill="white"/>
</clipPath>
</defs>
</svg>
