<svg width="84" height="84" viewBox="0 0 84 84" fill="none" xmlns="http://www.w3.org/2000/svg">
<g filter="url(#filter0_d_1_5)">
<circle cx="42" cy="38" r="30" fill="#105857"/>
</g>
<path d="M54.3816 26.0126H53.0567V24.467C53.0567 23.8044 52.5204 23.2682 51.8895 23.2682C51.227 23.2682 50.6907 23.8044 50.6907 24.467V27.1799C50.6907 27.8425 50.1545 28.3787 49.4919 28.3787C48.8296 28.3785 48.3248 27.8422 48.3248 27.1799V26.0125H44.3816V24.4669C44.3816 23.8043 43.8453 23.2681 43.2145 23.2681C42.5519 23.2681 42.0157 23.8044 42.0157 24.4669V27.1799C42.0157 27.8424 41.4794 28.3786 40.8485 28.3786C40.186 28.3786 39.6497 27.8424 39.6497 27.1799V26.0125H35.7065V24.4669C35.7065 23.8043 35.1703 23.2681 34.5077 23.2681C33.8454 23.2681 33.3406 23.8043 33.3406 24.4669V27.1798C33.3406 27.8424 32.8043 28.3786 32.1418 28.3786C31.4794 28.3784 30.9747 27.8421 30.9747 27.1798V26.0124H29.6183C28.1988 26.0124 27 27.1796 27 28.6307V50.1134C27 51.5329 28.1671 52.7317 29.6183 52.7317H54.3817C55.8329 52.7317 57 51.5645 57 50.1134L56.9998 28.6307C56.9998 27.1797 55.8326 26.0124 54.3815 26.0124L54.3816 26.0126ZM53.0882 47.4953C53.0882 48.2207 52.4887 48.7887 51.7947 48.7887H32.2364C31.5109 48.7887 30.9429 48.1893 30.9429 47.4953L30.9432 36.1072C30.9432 35.3817 31.5426 34.8138 32.2366 34.8138H51.7949C52.5204 34.8138 53.0884 35.3815 53.0884 36.1072L53.0882 47.4953Z" fill="white"/>
<path d="M36.8737 37.0851H34.0662C33.5931 37.0851 33.2144 37.4636 33.2144 37.9369V39.9873C33.2144 40.4604 33.5928 40.8391 34.0662 40.8391H36.8737C37.3468 40.8391 37.7255 40.4606 37.7255 39.9873V37.9369C37.7255 37.4636 37.347 37.0851 36.8737 37.0851Z" fill="white"/>
<path d="M43.4356 37.0851H40.628C40.1549 37.0851 39.7762 37.4636 39.7762 37.9369V39.9873C39.7762 40.4604 40.1547 40.8391 40.628 40.8391H43.4356C43.9087 40.8391 44.2874 40.4606 44.2874 39.9873V37.9369C44.2559 37.4636 43.8772 37.0851 43.4356 37.0851Z" fill="white"/>
<path d="M49.9656 37.0851H47.158C46.6849 37.0851 46.3062 37.4636 46.3062 37.9369V39.9873C46.3062 40.4604 46.6847 40.8391 47.158 40.8391H49.9656C50.4387 40.8391 50.8174 40.4606 50.8174 39.9873V37.9369C50.8171 37.4636 50.4387 37.0851 49.9656 37.0851Z" fill="white"/>
<path d="M36.8737 42.7635H34.0662C33.5931 42.7635 33.2144 43.142 33.2144 43.6153V45.6656C33.2144 46.1387 33.5928 46.5174 34.0662 46.5174H36.8737C37.3468 46.5174 37.7255 46.139 37.7255 45.6656V43.6153C37.7255 43.1422 37.347 42.7635 36.8737 42.7635Z" fill="white"/>
<path d="M43.4356 42.7635H40.628C40.1549 42.7635 39.7762 43.142 39.7762 43.6153V45.6656C39.7762 46.1387 40.1547 46.5174 40.628 46.5174H43.4356C43.9087 46.5174 44.2874 46.139 44.2874 45.6656V43.6153C44.2559 43.1422 43.8772 42.7635 43.4356 42.7635Z" fill="white"/>
<path d="M49.9656 42.7635H47.158C46.6849 42.7635 46.3062 43.142 46.3062 43.6153V45.6656C46.3062 46.1387 46.6847 46.5174 47.158 46.5174H49.9656C50.4387 46.5174 50.8174 46.139 50.8174 45.6656V43.6153C50.8171 43.1422 50.4387 42.7635 49.9656 42.7635Z" fill="white"/>
<defs>
<filter id="filter0_d_1_5" x="0" y="0" width="84" height="84" filterUnits="userSpaceOnUse" color-interpolation-filters="sRGB">
<feFlood flood-opacity="0" result="BackgroundImageFix"/>
<feColorMatrix in="SourceAlpha" type="matrix" values="0 0 0 0 0 0 0 0 0 0 0 0 0 0 0 0 0 0 127 0" result="hardAlpha"/>
<feMorphology radius="4" operator="dilate" in="SourceAlpha" result="effect1_dropShadow_1_5"/>
<feOffset dy="4"/>
<feGaussianBlur stdDeviation="4"/>
<feComposite in2="hardAlpha" operator="out"/>
<feColorMatrix type="matrix" values="0 0 0 0 0 0 0 0 0 0 0 0 0 0 0 0 0 0 0.12 0"/>
<feBlend mode="normal" in2="BackgroundImageFix" result="effect1_dropShadow_1_5"/>
<feBlend mode="normal" in="SourceGraphic" in2="effect1_dropShadow_1_5" result="shape"/>
</filter>
</defs>
</svg>
